<svg xmlns="http://www.w3.org/2000/svg" viewBox="0 0 958.7 155.9" style="fill:var(--primary, #000)"><style>:root { --primary : #ffffff; }</style><title>Logo</title><desc>Brand Logo for Autoweek</desc><path d="M236.1 83.8h32.2l-14.2-30.1h-3.8c-.9 1.7-6.1 12.9-14.2 30.1m42.1 21h-52.1c-3.4 7.5-7.2 15.6-11.2 24h-24.6l48.5-99.6h26.8l48.5 99.6h-24.6l-11.3-24zm66.6 25.6c-16.3 0-27-11.4-27-28.9V53.9h21.9v44.5c0 7.9 5.5 11.8 12.1 11.8 8.4 0 18.4-6.3 20.8-18.6V53.8h21.6v74.9H374l-1.5-10.6c-7.2 8.4-17.8 12.3-27.7 12.3m71.8-101.3h21.7v24.7h11.8v21.1h-12v21.7c0 8.8 1.9 11.5 8.2 11.5 2.4 0 7.2-.3 8.8-.6v21.1c-3.3.6-9.6.9-13 .9-17.4 0-25.6-10.3-25.6-32.1V74.8H406V53.7h10.5V29.1h.1zm88.9 43.5c-10.6 0-17.5 6.7-17.5 18 0 12.1 6.9 20.2 17.8 20.2 10.6 0 17.8-6.7 17.8-18 0-12.1-7-20.2-18.1-20.2m-39.6 19.5c0-24.7 15.7-40.4 39.5-40.4 24 0 40.1 15.9 40.1 39.7 0 24.7-15.9 40.4-39.7 40.4-23.9 0-39.9-15.9-39.9-39.7m203.7-38.2h21.1l-29.5 74.9h-21.6l-19.9-50.4-19.9 50.4h-21.6l-29.5-74.9h21.1l19.5 50.9L608 53.9h23.4l18.7 50.9 19.5-50.9zm44.9 28.4h36c-2.1-7.2-7.6-11.2-18.6-11.2-7.8 0-14.4 4.5-17.4 11.2m37.8 21.1 15.3 9.6c-6.4 13.6-22.2 18.7-35.2 18.7-24 0-40-15.9-40-39.7 0-24.7 15.7-40.4 39.5-40.4 21.7 0 39.1 15 39.1 36.1 0 5.7-1.9 10-1.9 10H714c2.5 8.5 9.6 14.5 18.3 14.5 4.4.1 15.5-.1 20-8.8m51.3-21.1h36c-2.1-7.2-7.6-11.2-18.6-11.2-7.8 0-14.4 4.5-17.4 11.2m37.7 21.1 15.3 9.6c-6.4 13.6-22.2 18.7-35.2 18.7-24 0-40-15.9-40-39.7 0-24.7 15.7-40.4 39.5-40.4 21.7 0 39.1 15 39.1 36.1 0 5.7-1.9 10-1.9 10H803c2.5 8.5 9.6 14.5 18.3 14.5 4.5.1 15.5-.1 20-8.8m52.1-18.7 38.5-30.9h26.8l-37.2 29.8c7.8 15.7 20.4 26.5 27.3 26.5 2.1 0 4 0 5.7-.4v19c-4 .7-7.6 1.2-10.8 1.2-14.5 0-24.3-11.8-36.9-34.8L893.3 106v22.6h-21.7V29h21.7l.1 55.7zM114.2 64.6c-.1-1.1-.3-2.3-.5-3.6-.8-6.4-3.1-12.6-6.1-17.1-4-6.3-14.3-16-30.2-16-16.8 0-26.6 11.2-29.2 15.5-4.7 6.5-7.1 18-7.3 20.8v.2h10v9.2h10.9v-9.2h10.9v9.2h10.9v-9.2h10.9v9.2h10.9v-9.2h8.8v.2zm10.1 15.1c-.4 0-2.2-.1-4-.3-2.2-.2-4.1-1.5-4.5-3.7-.1-.6-.2-1.3-.3-2h-10v8.8H94.6v-8.8H83.7v8.8H72.8v-8.8H61.9v8.8h-11v-8.8H40.3v16.9h39.9v1.5c0 4 .3 10.6 2.1 13.2 1.3 2.2 4.6 4.7 9.9 4.7 11.1 0 21.9-12.2 23.5-18.6 1.3-5.4-1.1-8.9-9.2-8.9h18.4c.4 0 1.5-.5 1.5-1.5-.1-.8-.9-1.3-2.1-1.3zm-23 19.8c-3.6 3-7.7 3.9-9.3 3.9-4.5 0-5.2-3.4-5.2-8.9 0-.7-.1-2 .1-3.5.1-1.1 1.2-1.7 2.6-1.7h15.4c4.7 0 2.9 5.4-3.6 10.2z"/><path d="M77.5 118.2c-.9-1.4-1.1-1.7-1.5-2.7l-.1-.4c.3-.1.5-.2.6-.4.9-1 .7-2.7.7-4.6V93.7H48.9v7.8c0 1.7 0 2.7 2.1 4.7s10.3 7.5 13.6 9.4c0 0 2.4 1.6 5.2 2.1 3.4 9 11.6 11.4 12 11.5.4.2.8.3 1 .3.7.1 1.6-.3 1.9-.9.1-.2.1-.3.1-.4.1-.2.5-1.7.5-1.9 0-.1.1-.4.1-.5.3-1.3-.8-2.1-1.2-2.3l-.6-.2c-1.3-.6-4.4-2.4-6.1-5.1z"/><path d="M77.9 6.9c9.6 0 18.9 1.9 27.6 5.6 8.5 3.6 16 8.7 22.6 15.2 6.5 6.5 11.6 14.1 15.2 22.6 3.7 8.7 5.6 18 5.6 27.6s-1.9 18.9-5.6 27.6c-3.6 8.5-8.7 16-15.2 22.6-6.5 6.5-14.1 11.6-22.6 15.2-8.7 3.7-18 5.6-27.6 5.6S59 147 50.3 143.3c-8.5-3.6-16-8.7-22.6-15.2-6.5-6.5-11.6-14.1-15.2-22.6-3.7-8.7-5.6-18-5.6-27.6S8.8 59 12.5 50.3c3.6-8.5 8.7-16 15.2-22.6 6.5-6.5 14.1-11.6 22.6-15.2 8.7-3.7 18-5.6 27.6-5.6m0-6.9C36.2 0 2.2 32.7.1 73.8c-2.4 46.1 35.9 84.4 82 82 41.1-2.1 73.8-36.2 73.8-77.8 0-43.1-34.9-78-78-78z"/></svg>