<svg viewBox="0 0 969 277" xmlns="http://www.w3.org/2000/svg"><style>:root { --primary : #ffffff; }</style><title>Logo</title><desc>Brand Logo for Best Products</desc><path style="fill:var(--primary, #000)" d="M136.011 1.743H0v274.389l138.618.001v-.037c48.319-1.367 87.07-40.966 87.07-89.615 0-47.997-37.748-87.069-85.16-89.425v-.186c.203.002.401.03.605.03 26.277 0 47.58-21.302 47.58-47.578.001-25.647-20.308-46.497-45.713-47.484l-4.382-.06v-.035h-2.534l-.073-.001v.001zm456.295 169.514c-41.041-6.05-72.541-41.416-72.541-84.14 0-46.973 38.078-85.051 85.05-85.051v33.51c60.965 6.261 108.521 57.774 108.521 120.395 0 56.781-54.188 121.03-121.03 121.029V171.257zM396.501 98.939V81.518h90.331V1.743h-228.95v274.389l138.619.001v-.224h90.331v-79.775h-90.331v-17.42h90.331V98.939h-90.331zM781.773 80.65v194.615h138.619V80.65h47.988V.875H733.783V80.65h47.99z"/></svg>