<svg aria-labelledby="svg-title" viewBox="0 0 664 116" xmlns="http://www.w3.org/2000/svg"><style>:root { --primary : #ffffff; }</style><title>Logo</title><desc>Brand Logo for Bicycling</desc><path style="fill:var(--primary, #000)" d="m559.409 75.999 8.076-27.668c4.536-15.538 2.932-26.242-17.722-26.242-13.578 0-18.904 4.447-23.969 11.618-.933 1.314-1.998 1.046-1.592-.387l2.657-9.016h-35.961L488.9 31.23c6.129 0 8.536 2.216 6.266 9.8l-14.815 50.55h28.873l10.045-33.966c4-13.584 8.923-23.125 16.245-23.125 5.732 0 5.732 4.838 3.462 12.546l-8.648 29.525c-3.677 12.571.182 16.852 13.773 16.852 6.928 0 15.397-1.195 20.215-2.83l2.14-7.43c-.832.141-1.65.209-2.523.209-4.17.006-6.014-2.258-4.524-7.363zm-90.91 0 15.257-52.078c-5.985.901-11.321 1.17-18.384 1.17-9.31 0-15.695-.646-19.557-1.314l-1.985 6.928c7.043.269 8.095 2.874 5.966 10.458l-10.381 35.402c-3.687 12.603.185 16.852 13.776 16.852 6.931 0 15.391-1.196 20.212-2.83l2.146-7.43c-.832.14-1.66.208-2.526.208-4.166.003-6.046-2.2-4.524-7.366zM472.579 0h2.794c9.06 0 15.052 2.606 12.392 11.487-2.267 7.702-7.987 9.662-15.724 9.662h-2.797c-9.051 0-15.049-2.606-12.386-11.494C459.125 2.088 464.848 0 472.578 0zm-78.266 76.565c-3.699 12.603.176 16.852 13.78 16.852 6.912 0 15.387-1.196 20.193-2.83l2.154-7.43c-.84.14-1.662.208-2.522.208-4.182 0-6.04-2.203-4.534-7.37l20.072-68.677h-37.422l-2.002 6.925c5.333 0 8.127 1.445 5.87 9.016l-15.589 53.306zm-260.664-.566 15.273-52.078c-5.998.901-11.33 1.17-18.387 1.17-9.326 0-15.701-.646-19.557-1.314l-2.001 6.928c7.062.269 8.101 2.874 5.969 10.458l-10.368 35.402c-3.696 12.603.175 16.852 13.776 16.852 6.912 0 15.39-1.196 20.196-2.83l2.161-7.43c-.85.14-1.668.208-2.525.208-4.182.003-6.043-2.2-4.537-7.366zM137.732 0h2.797c9.054 0 15.049 2.606 12.386 11.487-2.26 7.702-7.99 9.662-15.71 9.662H134.4c-9.06 0-15.048-2.606-12.382-11.494C124.275 2.088 130.01 0 137.732 0zM614.39 35.024c-3.59 3.52-5.726 9.659-9.064 21.034-3.584 12.268-5.058 18.275-1.992 21.152 1.202 1.046 2.791 1.57 6.126 1.57 7.468 0 11.596-7.823 14.917-19.07l4.01-13.71c3.453-11.89-.812-13.853-6.535-13.853-3.472 0-5.464.918-7.462 2.877zm49.152-10.716-16.91 57.867c-4.009 13.582-7.599 19.59-13.587 24.682-7.063 6.014-16.254 8.24-33.963 8.24-33.704 0-36.498-6.795-32.905-18.816h27.438c-3.066 9.8-2.398 12.15 6.263 12.15 4.527 0 7.33-.26 10.125-3.003 3.181-3.133 5.454-9.54 9.585-23.898.403-1.186-.393-1.704-1.464-.403-4.259 5.368-11.452 9.933-22.374 9.933-7.72 0-12.392-1.432-15.985-3.792-8.651-5.882-9.054-16.858-3.99-33.96 3.453-11.89 8.648-20.515 16.64-25.742 5.33-3.52 11.053-5.48 20.108-5.48 11.854 0 16.254 3.52 18.52 7.97.528 1.173 1.59 1.046 2.002-.4l1.592-5.352h28.905v.004zm-300.378 4.578c-3.066 0-5.065.777-7.063 2.733-2.928 2.875-4.524 7.97-9.582 24.954-6.129 20.634-6.266 24.685-4.265 28.087 1.065 1.832 3.063 2.346 5.989 2.346 7.586 0 9.719-4.038 13.987-18.684h27.038c-6.25 20.631-17.709 25.469-41.425 25.469-12.11 0-19.307-1.43-25.165-5.08-8.785-5.624-11.576-15.424-6.26-33.455 5.065-16.97 12.255-25.846 24.503-30.168 5.988-2.091 13.45-3.002 22.642-3.002 28.506 0 35.555 9.271 30.766 25.599h-26.77c4-13.575 3.063-18.8-4.395-18.8zm-63.16 53.29c-3.993 13.46-7.193 19.588-12.913 24.681-6.669 6.014-15.73 8.24-32.77 8.24-32.764 0-35.165-6.795-31.575-18.816h27.441c-2.797 9.659-2.25 12.15 4.79 12.15 4.267 0 6.4-.775 8.398-3.003 3.2-3.395 5.192-9.272 9.598-24.17.39-1.17-.678-1.56-1.611-.26-5.061 7.313-11.05 10.062-22.502 10.062-20.918 0-22.37-10.72-17.852-26.26l7.062-24.04c2.13-7.57 1.599-9.53-5.323-9.53l1.998-6.926h37.026l-12.124 41.8c-2.538 8.881-2.26 12.545 3.335 12.545 7.184 0 11.986-9.668 15.982-23.118l4.252-14.5c2.133-7.452 1.605-9.798-4.658-9.798l1.998-6.925h36.496l-17.047 57.867zM196.09 28.885c-3.047 0-5.055.777-7.047 2.733-2.944 2.875-4.533 7.97-9.598 24.954-6.128 20.634-6.256 24.685-4.261 28.087 1.068 1.832 3.066 2.346 5.991 2.346 7.603 0 9.732-4.038 13.988-18.684H222.2c-6.254 20.631-17.712 25.469-41.41 25.469-12.123 0-19.316-1.43-25.177-5.08-8.801-5.624-11.59-15.424-6.263-33.455 5.061-16.97 12.255-25.846 24.51-30.168 5.997-2.091 13.446-3.002 22.638-3.002 28.509 0 35.561 9.271 30.766 25.599H200.49c3.993-13.575 3.063-18.8-4.402-18.8zM65.53 15.033c-1.739 0-2.535.259-3.075 2.219L55.14 42.323c-.54 2.1 0 2.229 1.726 2.229h4.537c7.59 0 9.719-3.005 12.782-13.582 3.46-12.017 2.928-15.94-7.063-15.94H65.53v.003zM43.685 81.658c-.665 2.078 0 2.206 1.724 2.206h6.535c8.654 0 10.783-3.383 13.715-13.71 3.99-13.853 3.066-17.9-7.2-17.9h-3.721c-1.998 0-2.526.13-3.063 2.09l-7.99 27.314zM68.994 7.325c33.819 0 40.085 9.93 35.561 25.212-2.535 8.37-7.602 13.195-22.38 15.154-2.129.269-2.4 1.573-.658 1.96C95.5 52.385 100.29 59.978 96.3 73.163c-4 13.191-12.922 18.425-43.691 18.425H0l1.998-6.925c8.383 0 10.787-1.688 12.92-9.013L30.1 23.92c2.257-7.583 1.07-9.674-7.462-9.674l1.998-6.925h44.357v.004z"/></svg>