<svg xmlns="http://www.w3.org/2000/svg" fill="none" viewBox="0 0 2611 290"><style>:root { --primary : #ffffff; }</style><title>Biography logo</title><desc>Biography logo</desc><g clip-path="url(#a)"><path style="fill:var(--primary, #000)" d="M205.796 202.607c0 49.062-39.958 81.162-89.579 81.162H2.089c-.522 0-1.044-.261-1.567-.522C0 282.725 0 282.203 0 281.681V8.705c0-.261 0-.522.261-.783 0-.261.261-.522.522-.783.523-.522 1.045-.522 1.567-.522h106.294c48.054 0 87.228 31.316 87.228 79.074.261 10.178-1.828 20.356-6.007 29.751-4.178 9.395-10.446 17.746-18.281 24.27 10.708 6.525 19.326 15.659 25.333 26.619 6.268 11.222 9.14 23.749 8.879 36.276ZM63.463 66.118v49.063h45.181c14.364 0 24.027-10.178 24.027-24.531 0-14.354-9.402-24.532-24.027-24.532H63.462Zm79.132 131.53c0-15.397-10.186-26.619-26.116-26.619H63.462v52.977h53.017c15.669.261 26.116-10.7 26.116-26.358ZM360.143 8.705V281.42c0 .261 0 .522-.261.783 0 .261-.261.522-.522.783s-.522.261-.784.522c-.261 0-.522.261-.783.261h-59.284c-.522 0-1.045-.261-1.567-.522s-.522-1.044-.522-1.566V8.705c0-.261 0-.522.261-.783s.261-.522.522-.783c.522-.522 1.045-.522 1.567-.522h59.284c.522 0 1.045.26 1.567.522.522.522.522 1.044.522 1.566ZM1260.37 192.69h-30.03v88.991c0 .522-.26 1.044-.53 1.566-.26.522-1.04.522-1.56.522h-59.29c-.52 0-1.04-.261-1.56-.522-.53-.261-.53-1.044-.53-1.566V8.705c0-.261 0-.522.27-.783.26-.261.26-.522.52-.783.26-.522 1.04-.522 1.57-.522h108.64c12.53 0 24.81 2.349 36.3 7.046 11.49 4.697 21.94 11.744 30.82 20.617 8.88 8.873 15.93 19.312 20.63 30.794 4.7 11.483 7.31 24.01 7.05 36.276 0 33.926-20.63 64.981-51.19 80.379l57.46 98.647c.26.261.26.783.26 1.044s0 .783-.26 1.044l-.78.783c-.27.261-.79.261-1.05.261h-63.2c-.26 0-.78 0-1.05-.261l-.78-.783-51.71-89.774Zm-30.03-55.587h47.53c17.5 0 31.6-15.398 31.6-35.493 0-20.094-14.36-35.492-31.6-35.492h-47.53v70.985Zm401.67 103.083h-102.9l-13.32 42.017c-.26.522-.52.783-.79 1.044-.26.261-.78.522-1.3.522h-64.77c-.26 0-.78 0-1.04-.261-.27-.261-.53-.261-.79-.522s-.26-.522-.26-.783v-1.044l91.93-270.628c.26-1.044 1.05-2.087 2.09-2.61a5.01 5.01 0 0 1 3.13-1.043h72.87c1.04 0 2.35.26 3.13 1.044 1.05.783 1.57 1.565 2.09 2.61l91.93 270.366c0 .261.26.522 0 1.044 0 .261-.26.522-.26.783-.26.261-.52.522-.78.522-.27 0-.53.261-1.05.261h-64.77c-.52 0-.78-.261-1.3-.522-.26-.261-.53-.522-.79-1.044l-13.05-41.756Zm-19.07-59.501-32.38-101.78-32.39 101.78h64.77Zm379.73-79.075c0 52.717-42.31 94.994-96.89 94.994h-41.53v84.816c0 .522-.26 1.044-.52 1.566-.52.522-1.04.522-1.56.522h-59.29c-.52 0-1.04-.261-1.57-.522-.52-.522-.52-1.044-.52-1.566V8.705c0-.261 0-.522.26-.783 0-.261.26-.522.53-.783.26-.522 1.04-.522 1.56-.522h102.9c54.32 0 96.63 42.277 96.63 94.993Zm-63.46 0c0-20.094-14.37-35.492-33.69-35.492h-41.53v71.246h41.53c19.59-.261 33.69-15.659 33.69-35.754Zm358.84-92.905V281.42c0 .261 0 .522-.27.783 0 .261-.26.522-.52.783s-.52.261-.78.522c-.26 0-.52.261-.78.261h-59.29c-.52 0-1.04-.261-1.57-.522-.26-.522-.52-1.044-.52-1.566V173.639h-86.96V281.42c0 .261 0 .522-.27.783 0 .261-.26.522-.52.783s-.52.261-.78.522c-.26 0-.52.261-.79.261h-58.76c-.52 0-1.04-.261-1.56-.522-.53-.261-.53-1.044-.53-1.566V8.705c0-.261 0-.522.26-.783 0-.261.27-.522.53-.783.52-.522 1.04-.522 1.56-.522h59.29c.52 0 1.04.26 1.57.522.52.522.52 1.044.52 1.566V112.57h87.23V8.705c0-.261 0-.522.26-.783 0-.261.26-.522.52-.783.52-.522 1.04-.522 1.57-.522h59.28c.52 0 1.04.26 1.57.522-.53.522-.26 1.044-.26 1.566Zm231.91 168.587v104.389c0 .522-.26 1.044-.52 1.566s-1.05.522-1.57.522h-59.28c-.53 0-1.05-.261-1.57-.522s-.52-1.044-.52-1.566V177.292L2365.09 9.748c-.26-.26-.26-.782-.26-1.043 0-.261 0-.783.26-1.044l.78-.783c.26-.261.79-.261 1.05-.261h67.12c.26 0 .78 0 1.04.26l.78.784 51.98 105.693 51.97-105.693.78-.783c.26-.261.78-.261 1.05-.261h67.11c.27 0 .79 0 1.05.26l.78.784c.26.26.26.783.26 1.044 0 .26 0 .782-.26 1.043l-90.62 167.544ZM945.409 131.361v51.151c0 .261 0 .522.261.783s.261.522.522.783c.261.26.523.261.784.521.261 0 .522.261.783.261h71.821c-9.93 26.62-33.952 42.8-70.776 42.8-53.8 0-87.228-34.448-87.228-81.423 0-48.541 34.734-82.99 81.482-82.99 24.289 0 44.398 8.613 57.722 20.878.26.261.78.522 1.3.522s1.05-.26 1.31-.522l40.74-40.711c.26-.261.26-.522.52-.783 0-.261.26-.522.26-.783s0-.522-.26-.783c0-.26-.26-.522-.52-.783C1016.97 14.707 980.927.614 943.581 1.136c-81.483 0-145.207 64.2-145.207 144.318 0 79.596 62.679 143.534 149.646 143.534 77.57 0 136.59-51.411 136.59-135.966v-21.661c0-.522-.26-1.044-.52-1.566s-1.05-.522-1.57-.522H947.759c-.261 0-.522 0-.783.261-.261 0-.523.261-.784.522s-.261.522-.522.783c-.261 0-.261.261-.261.522Zm-503.261 13.832c0-19.051 3.657-37.841 10.708-55.326 7.313-17.485 17.759-33.405 31.078-46.975a145.706 145.706 0 0 1 46.749-31.317C548.18 4.268 566.984.615 586.049.615c19.065 0 37.869 3.653 55.367 10.96a145.712 145.712 0 0 1 46.748 31.317c13.319 13.31 24.027 29.49 31.078 46.975a138.328 138.328 0 0 1 10.708 55.326c0 19.051-3.657 37.841-10.708 55.326-7.313 17.485-17.759 33.404-31.078 46.975a145.717 145.717 0 0 1-46.748 31.316c-17.498 7.307-36.302 10.961-55.367 10.961-19.065 0-37.869-3.654-55.366-10.961a145.71 145.71 0 0 1-46.749-31.316c-13.319-13.31-24.027-29.49-31.078-46.975-7.051-17.746-10.969-36.536-10.708-55.326Zm224.861 0c0-49.585-35.518-82.206-80.699-82.206s-80.699 32.882-80.699 82.206c0 49.584 35.518 82.206 80.699 82.206s80.699-32.883 80.699-82.206Z"/><path fill="#A11D20" d="M619.478 145.193c0-6.525-2.089-13.049-5.746-18.529-3.656-5.481-8.879-9.656-14.886-12.266-6.007-2.61-12.797-3.132-19.326-1.827-6.529 1.305-12.536 4.437-16.976 9.134-4.701 4.698-7.835 10.7-9.14 16.963-1.306 6.264-.523 13.049 1.828 19.312 2.611 6.003 6.79 11.222 12.274 14.876 5.485 3.653 12.014 5.741 18.543 5.741 8.88 0 17.237-3.392 23.505-9.656 6.529-6.524 9.924-14.875 9.924-23.748Z"/><path style="fill:var(--primary, #000)" d="M2580.03 271.764h-5.49v-3.132h14.63v3.132h-5.49v13.571h-3.65v-13.571Zm11.49-3.393h3.65l4.97 7.308 5.22-7.308h3.65v16.703h-3.39V273.33l-5.22 7.307-5.23-7.307v11.744h-3.39v-16.703h-.26Z"/></g><defs><clipPath id="a"><path fill="#fff" d="M0 0h2611v290H0z"/></clipPath></defs></svg>