<svg viewBox="0 0 1284 300" xmlns="http://www.w3.org/2000/svg"><style>:root { --primary : #ffffff; }</style><title>Logo</title><desc>Brand Logo for Elle Decor</desc><path style="fill:var(--primary, #000)" fill-rule="evenodd" clip-rule="evenodd" d="M90.83 250.94c28.27 0 31.28 11.8 31.28 25.6H61.33c0-13 8.54-14.03 21.88-14.03v-1.35H36.84v1.35c13.34 0 22.42 1.03 22.42 14.03H2.06c0-13.8 2.22-24.66 31.12-24.66v-1.34H0V300h2.06v-8.88H122.1V300h2.07v-50.41H90.83v1.35zm0-244.68c28.27 0 31.28 11.81 31.28 25.6H61.33c0-13 8.54-14.02 21.88-14.02v-1.35H36.84v1.35c13.34 0 22.42 1.02 22.42 14.02H2.06c0-13.79 2.22-24.65 31.12-24.65V5.86H0v49.47h2.06v-8.88H122.1v8.88h2.07V4.92H90.83v1.34zM2.06 195.4v-8.89H0v32.34h2.06v-8.87H122.1v8.87h2.07v-50.4H90.83v1.34c28.27 0 31.28 11.8 31.28 25.6h-121 .95zm0-82.38v-8.88H0v32.33h2.06v-8.87H122.1v8.88h2.07V86.06H90.83v1.34c28.27 0 31.28 11.8 31.28 25.6h-121 .95zm319.23 142.94c-28.5 25.81-59.04 36.66-105.15 36.66H158.6V4.92h57.75c45.9 0 77.35 11.21 105.58 36.88 29.52 26.74 45.68 64.7 45.68 107.19 0 42.48-16.22 79.71-46.33 106.97zM183.81 28.64v240.48h33.54c18.13-.05 34.27-2.7 48.62-7.84a112.65 112.65 0 0 0 38.22-23c24-21.8 37.57-53.28 37.57-89.3 0-35.8-12.6-65.88-34.53-87.02-10.96-10.57-24.25-18.9-39.46-24.59-14.5-5.43-30.75-8.3-48.37-8.7-.86-.02-3-.03-3.88-.03h-31.7zm210.86 263.98V4.92h143.85v23.72h-118.5v94.9h115.7v23.5h-115.7v122.08h118.5v23.5H394.67zm562.5 4.92c-81.69 0-149.38-66.98-149.38-148.23C807.79 67.4 875.69 0 957.39 0c81.48 0 149.17 67.42 149.17 148.88 0 81.25-67.69 148.66-149.39 148.66zm0-273.56c-68.12 0-123.51 56.19-123.51 125.33 0 68.07 56.04 124.46 123.51 124.46 67.9 0 123.52-56.4 123.52-124.89 0-68.71-55.4-124.9-123.52-124.9zm172.12-19.7h43.48c31.23 0 49.34 4.48 64.81 15.3 18.51 12.94 29.28 34.16 30.22 59.61.09 2.5.08 4.97-.02 7.45-1.27 30.59-17.1 54.69-41.89 65.22-10.31 4.38-18.14 6.29-33.64 7.8-.46.03-.88.16-1.34.2l92.31 132.17h-30.77l-89.58-130.93h-8.39v130.93h-25.19V4.27zM1154.48 28v110.23h24.62c9.99-.06 18.9-1.3 26.67-3.66 7.96-2.43 14.74-6.02 20.21-10.74 10.95-9.44 16.77-23.35 16.77-41.26 0-19.63-7.7-35.64-20.83-43.95-5.7-3.6-12.42-6.32-20.37-8.1-6.76-1.5-14.42-2.27-23.07-2.48-.8-.02-2.91-.04-3.75-.04h-20.25zM708.27 1.23c31.1 0 58.51 9.07 84.64 27.87 1.51 1.08 3.67 2.29 6.27 4.67v33.15c-18.79-19.23-27.9-25.4-49.02-33.5a120.09 120.09 0 0 0-43.18-8.21c-65.72 0-121.14 55.96-122.8 122.93a131.6 131.6 0 0 0 0 5.92c1.52 63.7 53.59 117.14 116.7 120.59 4.1.23 8.25.23 12.46 0 21.8-1.27 46.52-10.38 65.55-22.98 4.37-2.89 9.19-6.89 14.46-11.46 1.5-1.3 3.44-2.63 5.83-5.22v31.8c-30.02 22.25-58.1 31.98-91.34 31.98-81.4 0-149.64-67.42-149.64-148.23 0-81.68 68.02-149.31 150.07-149.31z"/></svg>