<svg xmlns="http://www.w3.org/2000/svg" fill="none" viewBox="0 0 1571 300"><style>:root { --primary : #000000; }</style><title>Logo</title><desc>Brand Logo for Prevention</desc><path d="M1571 296.635h-47.08V173.349c0-24.285-14.11-33.623-33.64-33.623-21.67 0-41.47 14.194-41.47 50.055v106.854h-45.6V99.749h45.6v29.138h.75c11.2-19.428 31.67-35.488 58.29-35.488 37.38 0 63.15 20.544 63.15 65.005v138.231Zm-428.23 0h47.09V100.122h-47.09v196.513Zm-6.82-9.715c-11.81 7.623-21.68 12.701-47.46 12.701-35.9 0-55.67-20.695-55.67-69.115v-91.904h-24.67v-38.48h24.67V51.555l48.95-21.299v69.866h50.13v38.48h-50.13v87.047c0 22.874 5.39 31.755 18.68 31.755 9.34 0 17.56-2.985 22.79-6.349l12.71 35.865Zm-135.64 9.715h-47.084V173.349c0-24.285-14.095-33.623-33.634-33.623-21.67 0-41.477 14.194-41.477 50.055v106.854H832.53V99.749h45.585v29.138h.747c11.214-19.428 31.686-35.488 58.292-35.488 37.517 0 63.156 20.544 63.156 65.005v138.231ZM602.351 100.121l-43.345 133.752-44.841-133.752h-53.439l68.385 196.513h53.061l68.382-196.513h-48.203Zm-300.429-2.614-10.089 45.95c-6.889-2.088-10.271-2.613-16.814-2.613-38.926 0-39.985 36.938-39.985 47.821v107.969h-45.588V99.752h45.588v30.264h.751c8.953-23.025 23.135-36.615 44.838-36.615 5.17 0 16.34 1.307 21.299 4.106Zm1091.958 99.377c0 63.538-44.28 103.116-98.64 103.116-54.39 0-97.91-37.698-97.91-102.743 0-65.784 43.52-103.485 97.91-103.485 54.36 0 98.64 38.827 98.64 103.112Zm-47.83.373c0-40.974-20.36-63.134-50.81-63.134-30.47 0-50.46 23.284-50.46 62.761 0 38.349 19.99 62.764 50.46 62.764 30.45 0 50.81-23.667 50.81-62.391Zm-523.607 14.57h-137.51c1.378 21.015 19.058 46.324 54.554 46.324 26.9 0 43.344-4.854 58.292-13.816l13.451 37.358c-17.562 12.7-36.995 17.932-75.103 17.932-58.666 0-99.769-39.852-99.769-102.743 0-61.174 34.384-103.111 92.293-103.111 75.503 0 96.254 49.408 93.792 118.056Zm-44.469-34.373c-.721-23.681-16.267-42.959-44.092-42.959-20.947 0-43.002 12.514-48.202 42.959h92.294Zm-304.168 34.373H336.302c1.379 21.015 19.054 46.324 54.554 46.324 26.903 0 43.344-4.854 58.292-13.816l13.45 37.358c-17.557 12.7-36.988 17.932-75.106 17.932-58.667 0-99.771-39.852-99.771-102.743 0-61.174 34.389-103.111 92.299-103.111 75.497 0 96.254 49.408 93.786 118.056Zm-44.463-34.373c-.721-23.681-16.269-42.959-44.092-42.959-20.947 0-43.003 12.514-48.203 42.959h92.295Zm-247.369-72.099c0 81.439-59.412 105.725-129.287 105.725v85.554H0V6.35C26.779 2.066 57.252 0 72.115 0c59.416 0 109.859 26.148 109.859 105.355Zm-53.061.375c0-45.587-25.352-61.273-58.665-61.273-5.431 0-11.178 1.337-17.187 1.87v119.55c39.904 1.905 75.852-11.213 75.852-60.147ZM1195.09 56.037c0 15.846-12.93 28.392-28.78 28.392-15.84 0-28.77-12.546-28.77-28.392 0-15.86 12.93-29.139 28.77-29.139 15.85 0 28.78 13.279 28.78 29.139Z" style="fill:var(--primary, #000)"/></svg>