<svg style="fill:var(--primary, #d30c4f)" viewBox="0 0 1491 300" xmlns="http://www.w3.org/2000/svg"><style>:root { --primary : #d30c4f; }</style><title>Logo</title><desc>Brand Logo for Redbook</desc><path d="M1489.35 292.4v-33.06h-.58c-15.09 0-23.89-8.38-36.04-23.88-10.06-13.42-35.63-57-46.94-77.12l11.31-7.55c26.78-18.4 38.1-23.86 63.57-23.88V94.85c-12.53.36-35.79 1.04-51.83 1.04-21.8 0-60.35-1.26-60.35-1.26.41 4.62.41 27.25 0 32.28h6.7c17.18 0 20.96 11.73 5.87 23.05l-47.36 35.62c0-59.1 0-152.97.83-184.4-16.34.41-74.59.83-93.46.83v31.85h5.45c17.61 0 20.12 8.39 20.96 24.73 1.26 15.93.83 158.42 0 176.03-.84 18.44-5.03 24.72-20.96 24.72h-2.57v33.03c10.08-.3 37.9-1.17 55.79-1.17 21.38 0 54.91 1.26 58.68 1.26-.84-16.35 0-33.11 0-33.11h-5.03c-12.57 0-18.02-6.28-18.86-24.73-.42-7.97-.42-14.67-.42-28.08l17.6-11.74c8.39 11.74 18.87 28.09 25.57 40.23 7.96 14.68 6.71 24.32-5.03 24.32h-5.03s.84 16.35 0 33.1c2.1 0 40.23-1.25 62.45-1.25 19.61 0 49.57.94 59.68 1.2z"/><path d="M1148.95 89.23c-61.61 0-101.42 33.53-101.42 106.46 0 70.4 38.56 103.51 101.42 103.51 62.03 0 101.01-32.69 101.01-103.51 0-72.93-38.14-106.46-101.01-106.46zm0 176.44c-19.7 0-31.43-9.64-31.43-69.98 0-60.78 11.32-73.77 31.02-73.77 19.69 0 31.85 13 31.85 73.77 0 60.34-12.58 69.98-31.44 69.98zM936.04 89.23c-61.61 0-101.43 33.53-101.43 106.46 0 70.4 38.56 103.51 101.43 103.51 62.02 0 101-32.69 101-103.51 0-72.93-38.13-106.46-101-106.46zm0 176.44c-19.7 0-31.43-9.64-31.43-69.98 0-60.78 11.31-73.77 31.01-73.77 19.7 0 31.85 13 31.85 73.77 0 60.34-12.57 69.98-31.43 69.98zm-183.02-72.08c0 57.42-10.48 68.31-30.6 68.31-25.56 0-33.1-23.05-33.1-68.31 0-50.3 11.73-67.9 33.95-67.9 26.82 0 29.75 23.9 29.75 67.9zm69.57 1.68c0-77.54-25.98-106.04-71.66-106.04-31.86 0-52.39 15.5-61.61 44.84V110.2c0-23.9 0-65.8.83-108.97-14.86 1.14-65.31 1.24-88.54 1.25v31.86h4.3c11.32 0 15.5 5.03 16.35 19.7 1.67 40.65 1.25 147.52.41 172.25-.83 20.12-1.67 45.26-4.19 67.48h42.75c1.68-15.93 8.8-33.53 18.86-46.1 10.9 37.3 36.88 50.7 68.32 50.7 47.36 0 74.18-29.33 74.18-103.1zm-221.3 64.12c-12.16 0-17.6-5.87-18.03-19.7-.84-38.56-.84-185.25 0-238.9-18.32.76-62.93 1.17-89.31 1.25v31.87h4.66c11.73 0 17.6 5.86 17.6 20.95v77.12c-8.39-26.4-26.4-42.75-59.1-42.75-44.84 0-74.18 28.5-74.18 103.1 0 79.21 26.4 106.03 72.93 106.03 30.17 0 51.13-16.34 60.77-47.77v41.49c19.3 0 62.37-.36 88.05-.74V259.4h-3.4zm-85.08-56.17c0 40.24-12.58 58.68-33.95 58.68-26.4 0-29.76-25.56-29.76-69.57 0-54.9 8.8-66.64 31.86-66.64 22.2 0 31.85 15.93 31.85 55.33v22.2zm-144.18.43c4.61-67.9-21.8-114.42-90.52-114.42-60.35 0-100.17 38.14-100.17 107.71 0 68.73 37.3 102.26 99.33 102.26 57.42 0 85.5-28.08 90.1-70.4-8.38.42-37.71-2.1-45.67-2.52-3.78 23.47-13.42 36.88-37.73 36.88-25.56 0-36.46-16.35-38.14-59.52 13.41 0 106.46-.42 122.8 0zm-78.79-17.19h-44c.83-49.87 11.73-63.7 29.75-63.7 17.19 0 25.57 14.25 25.57 50.3 0 12.14-3.78 13.4-11.32 13.4zm-108.82-52.39c0-28.5-16.76-44.84-46.1-44.84-30.17 0-49.03 18.86-56.16 51.55l3.35-46.94C69.17 95.1 20.13 95.1 1.27 95.1v31.85H6.3c17.19 0 20.96 6.7 21.38 21.79.42 12.16.42 71.25 0 88.85-.42 16.76-4.61 21.8-20.96 21.8h-5.2v33.1c6.74-.16 41.16-1.25 62.2-1.25 19.32 0 48.64.92 59.19 1.18v-33.04h-5.54c-17.6 0-22.64-4.19-22.64-21.8v-63.7c0-31.23 8.56-50.81 23.52-58.6.72-.22 3.3-1.54 8.9-2.12 3.7-.38 7.2.55 7.24.62a31.6 31.6 0 0 0-14.74 26.7c0 17.5 14.26 31.69 31.85 31.69 23.54 0 32.92-18.75 32.92-38.1z"/></svg>