<svg viewBox="0 0 425 150" preserveAspectRatio="xMinYMin meet" xmlns="http://www.w3.org/2000/svg" style="fill:var(--primary, #000)"><style>:root { --primary : #ffffff; }</style><title>Logo</title><desc>Brand Logo for Road and Track</desc><path d="M416.685 0h-30.931v24.016c11.268 1.416 19.896 9.399 19.896 19.034s-8.628 17.617-19.896 19.034v8.361h30.93V0zM0 77.776v11.78h26.91v35.084H42.9V89.556h26.912v-11.78zm138.708 17.32c0 4.712-1.56 5.603-7.41 5.603h-25.221V89.43h25.09c5.852 0 7.541.955 7.541 5.667m16.056-.7c0-13.564-9.231-16.62-22.166-16.62H90.54v46.865h15.536v-13.817h17.55l16.77 13.817h19.436l-19.24-15.856c8.646-1.527 14.171-5.984 14.171-14.39m46.214-16.939-30.03 47.183h16.512l4.484-7.066h35.622l4.484 7.066h17.811l-30.032-47.183h-18.85zm8.776 11.971 10.79 17.066h-21.581l10.791-17.066zm87.133 35.978c16.121 0 26.392-1.91 31.396-3.376l.003-11.673c-12.673 2.494-21.259 3.586-31.334 3.586-12.61 0-16.446-1.337-16.446-12.86 0-11.527 3.965-12.418 16.381-12.418 11.506 0 21.273 1.65 31.4 3.819l-.004-12.289c-4.615-1.464-18.526-3.501-31.331-3.501-22.88 0-33.735 4.584-33.735 24.514s10.725 24.198 33.67 24.198m96.661-47.63-30.226 18.02v-18.02h-15.73v46.864h15.73v-16.108l6.564-3.884 25.873 19.992h21.774L382.17 97.325l32.762-19.549zm-345.381-36.8c0 4.712-1.56 5.604-7.41 5.604h-25.22V35.31h25.09c5.851 0 7.54.954 7.54 5.666m16.056-.7c0-13.564-9.231-16.62-22.166-16.62H0V70.52h15.535V56.704h17.552l16.77 13.817h19.435l-19.24-15.856c8.645-1.527 14.17-5.985 14.17-14.39m80.987 6.813c0 12.164-4.746 13.054-22.166 13.054-17.159 0-22.034-1.018-22.034-13.18 0-12.163 4.875-12.736 21.904-12.736 17.031 0 22.296.636 22.296 12.862m17.291-.126c0-20.568-12.22-24.707-39.457-24.707-27.236 0-39.325 4.265-39.325 24.833 0 20.568 11.96 24.516 39.195 24.516 27.236 0 39.587-4.076 39.587-24.642m58.043 5.412h-21.58l10.79-17.065 10.79 17.065zm29.316 18.147-30.03-47.183h-18.852l-30.03 47.183h16.51l4.486-7.068h35.622l4.484 7.068h17.81zm68.164-23.433c0 11.59-5.2 12.355-18.59 12.355h-17.68V35.308h17.68c13.26 0 18.59.128 18.59 11.78m17.291-.126c0-20.568-13-23.306-35.815-23.306h-33.802v46.866H299.5c22.814 0 35.815-2.994 35.815-23.56"/><path d="M392.752 35.919c-.785 0-1.72.557-1.72 1.664 0 .96.82 1.676 1.72 1.676 1.3 0 1.443-1.186 1.443-1.186 0 2.2-2.237 2.185-2.884 2.2l-3.11-.035c-5.449 0-8.257 2.943-8.257 6.865 0 2.03 1.016 3.802 2.73 5.041 1.147.829 2.574 1.363 4.13 1.326h.09c1.52 0 3.68-1.132 3.68-3.514 0-2.173-1.813-3.514-3.592-3.514-2.108 0-3.594 1.697-3.594 3.514 0 .15.008.331.062.631-.602-.588-1.084-1.376-1.166-2.442-.185-2.411 1.438-4.75 5.166-4.75 2.915 0 6.443 2.297 6.443 5.774 0 4.07-3.498 6.626-9.68 6.621-5.612-.197-8.695-3.71-8.695-8.168 0-1.756.804-5.505 4.506-6.643l.79-.171V39.61l-.79-.14c-2.207-.43-3.088-2.144-3.088-4.203 0-3.303 2.362-5.06 5.108-5.06 3.956 0 5.09 1.759 5.1 3.208.04.848-.285 1.478-.285 1.478l-.088.136c.024-1.696-1.272-2.767-2.8-2.767-2.897 0-2.919 2.56-2.919 2.78 0 1.11.696 2.275 2.07 2.694a5.293 5.293 0 0 0 1.449.192c2.872 0 4.26-1.75 4.26-4.355 0-3.537-2.711-4.802-7.012-5.023-5.402-.284-10.826 1.448-10.826 6.717 0 .77.098 3.656 2.867 4.96-2.846.898-5.767 3.154-5.633 7.958.26 6.488 6.129 9.204 15.987 9.204 10.063-.153 11.353-5.477 11.353-8.22 0-2.79-1.263-5.007-2.707-6.246.744-.425.816-.44 1.324-.883 1.138-.955 1.414-2.415 1.326-3.306-.115-1.174-.693-2.235-1.922-2.688-.266-.098-.745-.127-.836-.127m29.381 88.893c-1.717 0-2.785-.95-2.828-2.197a5.26 5.26 0 0 1 .007-.74c.09-1.308 1.184-2.197 2.812-2.197 1.585 0 2.696.855 2.804 2.213.026.167.017.525 0 .724-.072 1.283-1.113 2.197-2.795 2.197zm2.456-2.84c-.08-1.248-1.033-1.946-2.465-1.946-1.361 0-2.411.593-2.473 1.91-.01.166-.01.523 0 .602.035 1.21 1.015 1.951 2.473 1.951 1.504 0 2.411-.765 2.465-1.951.01-.14.01-.464 0-.567zm-1.754 1.821-.648-1.16h-.659v1.16h-.773v-3.017h1.708c.4 0 .685.088.916.244.188.14.276.41.276.637 0 .243-.071.496-.222.645a.956.956 0 0 1-.508.236l.72 1.255h-.81zm-.445-2.424h-.862v.75h.873c.356 0 .488-.2.488-.374 0-.176-.16-.376-.499-.376z"/><path d="M358.679 43.05c0-9.613 8.59-17.579 19.822-19.023V0h-30.93v70.446h30.93v-8.374c-11.231-1.443-19.822-9.409-19.822-19.022"/></svg>