<svg xmlns="http://www.w3.org/2000/svg" viewBox="0 0 678 170"><style>:root { --primary : navLogoColor; }</style><title>Logo</title><desc>Brand Logo for Seventeen</desc><path style="fill:var(--primary, #000)" d="M280.268 117.548c-10.094 28.332-22.866 43.426-35.02 43.426-4.737 0-7.623-3.102-7.623-8.892 0-4.343 1.443-11.891 8.859-39.393l3.296-12.509h39.758c2.472-6.84 4.738-21.61 4.738-30.915 0-26.47-8.858-36.757-23.895-36.757-6.593 0-13.186 3.128-19.777 9.746-7.417 7.445-14.214 19.244-21.012 36.82-7.416 19.023-11.537 39.295-11.537 51.703 0 22.745 9.065 36.81 23.691 36.81 15.45 0 30.9-15.3 42.437-49.006l-3.915-1.033zm-16.274-69.74c2.266-8.478 4.531-11.14 8.446-11.14 3.09 0 5.15 2.186 5.15 5.495 0 2.481-1.03 8.791-2.884 15.614L264.612 96.76h-13.595l12.977-48.952zm-181.69-15.04L70.56 43.728c-2.883-7.446-7.828-11.373-16.685-11.373-15.863 0-28.428 15.3-28.428 35.98 0 9.304 2.266 18.61 8.446 36.187 6.591 18.61 9.475 28.12 9.475 38.875 0 12.199-5.15 17.577-11.124 17.577-7.621 0-13.39-6.825-13.39-22.746 0-10.134.207-20.473.619-33.5l-2.472-.62-16.274 62.24 2.472.83 12.978-12.822c2.884 7.65 10.3 13.234 20.599 13.234 13.801 0 29.458-14.475 29.458-35.98 0-9.72-2.677-19.643-9.268-38.048-6.389-17.784-8.859-26.88-8.859-35.773 0-12.408 4.738-19.437 10.916-19.437 5.975 0 9.89 8.27 9.89 25.02 0 9.925-.413 16.957-.825 25.021l2.472.62 14.214-55.419-2.47-.826m47.584-.208c-6.593 0-13.183 3.102-19.776 9.72-7.415 7.445-14.214 19.23-21.011 36.807-7.416 19.024-11.536 39.29-11.536 51.697 0 22.745 9.064 36.806 23.69 36.806 15.45 0 30.899-15.301 42.435-49.007l-3.913-1.035c-10.095 28.332-22.866 43.426-35.02 43.426-4.738 0-7.622-3.102-7.622-8.892 0-4.343 1.44-11.891 8.858-39.393l3.294-12.509h39.759c2.472-6.84 4.737-21.61 4.737-30.915 0-26.47-8.856-36.705-23.895-36.705zm4.327 25.173L124.12 96.76h-13.596l12.98-48.952c2.265-8.478 4.53-11.14 8.445-11.14 3.09 0 5.15 2.366 5.15 5.675 0 2.48-1.03 8.567-2.884 15.39zm99.291-14.626c2.678-2.688 5.562-4.499 9.681-5.118l1.031-4.499h-28.634l-1.03 4.292c4.738 1.24 6.798 3.076 6.798 6.797 0 4.964-3.297 14.287-11.537 31.864L185.92 127.54h-.824l13.595-88.92h7.005l1.031-5.13h-40.79l-1.028 5.13h7.415l-16.686 126.54h17.305l45.112-95.353c8.446-17.784 12.361-23.598 15.451-26.7m146.261 5.79c0-9.513-5.564-16.542-16.07-16.542-9.68 0-16.685 4.186-23.484 17.007l3.915-15.872h-31.723l-1.03 5.13h7.827l-32.754 123.12h-7.21l-1.03 3.42h37.285l1.03-3.42h-4.943l25.75-95.297c4.738-17.37 10.3-23.456 14.625-23.456 2.678 0 4.121 1.611 4.121 4.713 0 3.514-.824 7.186-7.21 30.758l-22.455 83.282h-4.944l-1.03 3.42h37.699l1.03-3.42h-7.623l22.25-83.51c4.737-17.784 5.974-23.129 5.974-29.333m197.339 68.651c-10.094 28.332-22.865 43.426-35.02 43.426-4.737 0-7.623-3.102-7.623-8.892 0-4.343 1.443-11.891 8.859-39.393l3.296-12.509h39.758c2.472-6.84 4.738-21.61 4.738-30.915 0-26.47-8.859-36.757-23.895-36.757-6.593 0-13.186 3.128-19.778 9.746-7.414 7.445-14.213 19.244-21.011 36.82-7.416 19.023-11.535 39.295-11.535 51.703 0 22.745 9.063 36.81 23.69 36.81 15.448 0 30.9-15.3 42.434-49.006l-3.913-1.033zm-16.274-69.74c2.266-8.478 4.531-11.14 8.446-11.14 3.09 0 5.15 2.186 5.15 5.495 0 2.481-1.03 8.791-2.884 15.614L561.45 96.76h-13.595l12.977-48.952zM432.288 38.62h23.072l1.03-3.42h-22.867l9.272-33.991-2.06-.454c-10.3 17.991-27.399 31.442-45.527 35.372l-.411 2.493h12.359l-17.923 64.072c-8.033 28.535-10.3 39.479-10.3 45.064 0 12.406 7.212 20.98 18.542 20.98 14.008 0 23.69-8.638 34.195-49.58l-3.707-.597c-8.034 30.397-15.451 41.99-22.044 41.99-2.47 0-3.707-1.444-3.707-4.544 0-2.895 1.031-8.444 14.008-57.04l16.068-60.345m244.317 10.277c0-9.513-5.564-16.542-16.07-16.542-9.68 0-16.685 4.186-23.482 17.007l3.913-15.872h-31.723l-1.031 5.13h7.828l-32.756 123.12h-7.207l-1.032 3.42h37.286l1.03-3.42h-4.943l25.749-95.297c4.739-17.37 10.3-23.456 14.628-23.456 2.678 0 4.117 1.611 4.117 4.713 0 3.514-.823 7.186-7.209 30.758l-22.454 83.282h-4.944l-1.029 3.42h37.698l1.03-3.42h-7.623l22.25-83.51c4.737-17.784 5.974-23.129 5.974-29.333M470.81 100.18h39.758c2.472-6.84 4.738-21.61 4.738-30.915 0-26.47-8.857-36.757-23.896-36.757-6.59 0-13.183 3.128-19.776 9.746-7.415 7.445-14.212 19.244-21.013 36.82-7.415 19.023-11.534 39.295-11.534 51.703 0 22.745 9.062 36.81 23.689 36.81 15.45 0 30.9-15.3 42.436-49.006l-3.913-1.033c-10.095 28.33-22.866 43.426-35.02 43.426-4.738 0-7.624-3.102-7.624-8.894 0-4.341 1.443-11.89 8.858-39.391l3.297-12.509zm14.214-52.372c2.267-8.478 4.533-11.14 8.446-11.14 3.09 0 5.15 2.186 5.15 5.495 0 2.481-1.03 8.791-2.883 15.614L485.642 96.76h-13.596l12.978-48.952z"/></svg>