<svg viewBox="0 0 600 73" xmlns="http://www.w3.org/2000/svg"><title>Logo</title><desc>Town and Country</desc><path style="fill:var(--primary, #9a0500)" d="M233.1 57.4c-1.4 2-4.2 2.5-6.2 1.1s-2.5-4.2-1.1-6.2c3.1-4.5 5.6-7.8 7.8-10.7 1.3 2.6 2.8 5.4 4.4 8.6-1.4 2.2-3 4.5-4.9 7.2m2.8-45.4c1.5 0 2.7 1.2 2.7 2.7 0 2.1-.8 4.3-3.1 7.6-1.9-4-2.1-5-2.3-6.3-.5-2.7 1.2-4 2.7-4m24.9 22.5H248l-3.4 5.3c-1.3-2.4-2.6-4.9-4-7.4 4.7-6.2 7.9-11.4 7.9-17.6 0-7-5.7-12.7-12.7-12.7-7 0-12.7 5.7-12.7 12.7 0 4.3.6 6.9 5.3 16.7-4 4.9-9.6 11.9-12.2 15.2-5.3 6.7-3.2 16.6 3.8 21.5 7 4.9 17 3.5 21.5-3.7.4-.7 1.1-1.8 2-3.1 1.4 2.7 2.8 5.5 4.5 8.7h13s-4.5-8.2-10.5-19.4c4.4-6.9 8.9-14 10.3-16.2zM585.3 3l-14.1 23.5L557.4 3h-14.3l21.3 34.2V70h11.7V38.2L598.6 3h-13.3zM38.5 3H.9v11.7h12.9V70h11.7V14.7h13V3zm463.1 0H464v11.7h13V70h11.7V14.7h12.9V3zM58.2 14.7c-1.4.6-2.6 1.5-3.7 2.7-2.2 2.3-3.6 5.5-3.6 9.2v19.9c0 2.7.8 5.2 2.1 7.3 1.3 2.1 3.1 3.6 5.2 4.6 1.4.6 2.9 1 4.5 1s3.1-.3 4.5-1c1.4-.6 2.6-1.5 3.7-2.7 2.2-2.3 3.6-5.5 3.6-9.2V26.6c0-2.7-.8-5.2-2.1-7.3-1.3-2.1-3.1-3.6-5.2-4.6-1.4-.6-2.9-1-4.5-1-1.7 0-3.2.4-4.5 1zm4.4 56.4c-3.3 0-6.4-.7-9.3-2-2.8-1.3-5.4-3.1-7.5-5.3-4.2-4.5-6.8-10.6-6.8-17.2v-20c0-10 5.7-18.7 14.2-22.6 2.8-1.3 6-2 9.3-2 3.3 0 6.4.7 9.3 2 2.8 1.3 5.4 3.1 7.5 5.3 4.2 4.5 6.8 10.6 6.8 17.2v19.9c0 10-5.7 18.7-14.2 22.6-2.9 1.3-6 2.1-9.3 2.1zm272.3-56.4c-1.4.6-2.6 1.5-3.7 2.7-2.2 2.3-3.6 5.5-3.6 9.2v19.9c0 2.7.8 5.2 2.1 7.3 1.3 2.1 3.1 3.6 5.2 4.6 1.4.6 2.9 1 4.5 1s3.1-.3 4.5-1c1.4-.6 2.6-1.5 3.7-2.7 2.2-2.3 3.6-5.5 3.6-9.2V26.6c0-2.7-.8-5.2-2.1-7.3-1.3-2.1-3.1-3.6-5.2-4.6-1.4-.6-2.9-1-4.5-1s-3.1.4-4.5 1zm4.5 56.4c-3.3 0-6.4-.7-9.3-2-2.8-1.3-5.4-3.1-7.5-5.3-4.2-4.5-6.8-10.6-6.8-17.2v-20c0-10 5.7-18.7 14.2-22.6 2.8-1.3 6-2 9.3-2 3.3 0 6.4.7 9.3 2 2.8 1.3 5.4 3.1 7.5 5.3 4.2 4.5 6.8 10.6 6.8 17.2v19.9c0 10-5.7 18.7-14.2 22.6-2.9 1.3-6 2.1-9.3 2.1zm-39.3-23.4c-.3 3.3-1.7 6.2-3.8 8.3-1.1 1.1-2.3 1.9-3.6 2.5-1.3.6-2.8.9-4.3.9-1.6 0-3.1-.3-4.5-1-2.1-.9-3.9-2.5-5.2-4.6-1.3-2.1-2.1-4.6-2.1-7.3V26.6c0-3.7 1.4-6.9 3.6-9.2 1.1-1.2 2.4-2.1 3.7-2.7 1.4-.6 2.9-1 4.5-1s3.1.3 4.4 1c2.1.9 3.9 2.5 5.2 4.6 1.3 2.1 2.1 4.6 2.1 7.3h11.7c0-6.7-2.5-12.8-6.8-17.2-2.1-2.2-4.6-4.1-7.5-5.3-2.8-1.3-6-2-9.3-2-3.3 0-6.4.7-9.3 2-8.5 3.8-14.2 12.6-14.2 22.6v19.9c0 6.7 2.5 12.8 6.8 17.2 2.1 2.2 4.6 4.1 7.5 5.3 2.8 1.3 6 2 9.3 2 3.1 0 6.2-.7 8.9-1.8 8.3-3.6 13.9-11.7 14.5-21.2v-.3h-11.6v-.1zm88.5 23.4c-6 0-11.4-2.4-15.4-6.4-3.9-3.9-6.4-9.4-6.4-15.4V3h11.7v46.4c0 2.8 1.1 5.2 2.9 7.1 1.8 1.8 4.3 2.9 7.1 2.9s5.2-1.1 7.1-2.9c1.8-1.8 2.9-4.3 2.9-7.1V3h11.7v46.4c0 6-2.4 11.4-6.4 15.4-3.7 3.8-9.2 6.3-15.2 6.3zM448.3 3v42.1L427 3h-12.6v67.1h11.7V27.2l21.6 42.9H460V3h-11.7zM196.9 3v42.1L175.6 3H163v67.1h11.7V27.2l21.6 42.9h12.3V3h-11.7zm330.9 11.7c4.6 0 8.3 3.7 8.3 8.3 0 4.6-3.7 8.3-8.3 8.3h-10.4V14.7h10.4zm11.3 22c.7-.5 1.3-1 1.9-1.5 1.9-1.7 3.4-3.8 4.5-6.1s1.7-4.9 1.7-7.6c0-2.7-.6-5.3-1.7-7.6C542.3 6.7 534.9 3 526.6 3h-21v67.1h11.7V41.4h9.2c4.8 0 7.5 2.7 7.5 7.5v21.2h11.7V44.2c.1-4.6-2.5-7.2-6.6-7.5zM146.5 3l-9.2 40.2L127 3h-10.2l-9.1 40.2L98.4 3H84.9l16.7 67h10.3l9.4-41.7L131.9 70h10.7l17-67h-13.1z" fill-rule="evenodd"/></svg>