<svg xmlns="http://www.w3.org/2000/svg" viewBox="0 0 550.7 127.1"><style>:root { --primary : #0A0736; }</style><title>Logo</title><desc>Brand Logo for Veranda</desc><g style="fill:var(--primary, #0A0736)"><path d="M525.6 107.3h25.1c-.2 0-4-1.7-5.7-3.6-1.4-1.4-1.9-2.7-2.8-4.7l-34.6-83.8-35.4 84c-.8 2-1.4 3.4-3 5.1-1.2 1.3-3.6 2.9-3.9 3h21.3c-.1 0-3.4-1.2-4.1-2.9-.6-1.7.1-3 .7-4.7l8.3-19.8h30.1l7.2 17.7c.8 2.3 2 4 1.1 6.3-.8 2-4.2 3.4-4.3 3.4zM494.4 73l11.9-29.8L518.8 73h-24.4zm-18.3-12.8c-1.2-25.1-19.8-42.3-43.3-42.3H390c.2.1 2.9 1.7 3.9 3.3.8 1.3 1.3 2.3 1.3 3.7v75.4c0 1.4-.5 2.4-1.1 3.5-1.2 1.9-4.7 3.4-5.1 3.5l35.7.1c29.2 0 52.8-20.8 51.4-47.2zm-52.4 40.1c-6.3 0-10.1 0-16-1.9V24.3H430c19.4 0 33.7 17.5 33.5 36.4-.4 32.3-17.9 39.6-39.8 39.6zm-262.8-3c-2.4 1.8-4.5 2.4-7.5 2.4H125V61.3h21.9c1.4 0 2.4.1 3.5 1 1.1.7 1.7 1.6 2 2.9v-15c-.5 1.3-1.2 2-2.4 2.9-1 .7-2.2 1.3-3.4 1.3H125V24.1h25.8c1.9 0 3.3.6 4.9 1.6 1.7 1.1 2.7 1.9 3.6 3.6l.1-11.7h-52.9c.2.1 3.3 2 4.7 3.7 1.3 1.4 1.9 3.5 1.9 5.8V100c0 1.8-.5 3.1-1.7 4.5-1.2 1.3-3.6 2.7-3.9 2.9h55.3l2.8-16.8c-.7 2.8-2.3 5-4.7 6.7z"/><path d="M110.1 3.2c1.6-1.4 2.7-2.2 4.7-3.2H88.7c.5 0 3.7 1.3 4.7 3.2.6 1.8.3 3.2-.4 5L60.8 90.6 27.5 10.9c-1-2.2-.6-4.3.5-6.6C29 2.2 32.5 0 32.7 0H0c.3.2 4.3 2.6 6.4 4.8 1.9 2.2 3.1 4 4 6.9l48 115.4L105.6 9.8c1.1-2.9 2.4-4.7 4.5-6.6zm252.7 14.4c1.3.6 2.2 1.2 2.9 2.4.7 1 1.2 1.8 1.2 3v56.2l-50.1-61.6H296c.2 0 3.5 1.2 4.9 2.9 1.3 1.3 2.4 1.9 2.4 4.3v77.4c0 1.1-.1 2.1-.8 2.8-.6-.4-1.2-.9-1.6-1.4-1.4-1.4-1.9-2.7-2.8-4.7l-34.6-83.8-32.7 77.6c-2.2-3.3-4.3-6.8-6-10-7.6-14.1-16.4-20.7-16.8-21.1 1-.2 18.7-4.9 18.2-22.2-.5-16.2-16.1-21.9-27-21.9h-28.4c.1 0 2.5 1.7 3.4 3.3.6 1.2 1.1 2.2 1.1 3.6l-.1 76c0 1.4-.5 2.4-1.2 3.5-.8 1.6-3.1 3-3.4 3.3h21.1s-2.2-1.4-3.1-2.7c-1-1.3-1.9-2.4-1.9-4.2V64.9h7.5c2 0 4.5.5 6.6 1.8 1.3 1 2.3 1.9 3.1 3.4l20 32.2c.4.7.9 1.3 1.4 1.9 0 .1-.1.1-.1.2-1.2 1.3-3.6 2.9-3.9 3h25.1c-2.4-.8-4-1.6-6.4-2.9-.4-.3-1-.8-1.7-1.5.1-1.1.5-2 .9-3.2l8-19.8h30.4l7.2 17.7c.8 2.3 2 4 1.1 6.3-1 1.9-4.3 3.4-4.5 3.4h37.2c-1.4-.5-2.4-1.2-3.4-2.4-.7-1-1.2-1.8-1.2-3V33.4l63.1 76.4V23c0-1.3 1-2 1.7-3 .8-1.1 1.7-1.7 2.9-2.3h-18.9v-.1zM198.4 58.2c-1.2.5-11.3.2-11.7.2l.1-17.4.1-17.4h7.8c8.2 0 17.4 5.3 20.4 12.4.6 1.6 1 3.3 1 4.9-.2 5.8-5 12.1-17.7 17.3zM250.2 73l12.1-29.8L274.9 73h-24.7z"/></g></svg>